# xmcd
#
# Track frame offsets:
#	150
#	19279
#	35289
#	51386
#	66380
#	84761
#	103928
#	123317
#	140104
#	159632
#	176221
#	194162
#	211358
#	229679
#	247133
#	261529
#	280169
#	296462
#
# Disc length: 4245 seconds
#
# Revision: 1
# Processed by: cddbd v1.5PL3 Copyright (c) Steve Scherf et al.
# Submitted via: audiograbber 1.83.01
#
DISCID=22109312
DTITLE=Lütfü Gültekin - Gül Türküleri (A Tribute to Lütfü Gültekin)
DYEAR=1900
DGENRE=
TTITLE0=Acilar içimde kaldi
TTITLE1=Toz oldu duman oldu önüm
TTITLE2=Emegim zay-i oldu
TTITLE3=Güne reyhan ekerim
TTITLE4=Dedim dilber
TTITLE5=Yol aglar
TTITLE6=Bir gönüle ask girince
TTITLE7=Ilim dergahinin
TTITLE8=Güvercinin uçusundan
TTITLE9=Muhabbet küpünün olsam sarabi
TTITLE10=Ask meydaninda
TTITLE11=Nuh'un gemisine
TTITLE12=Vahdet badesiyle
TTITLE13=Daglar
TTITLE14=Gel Ali'm
TTITLE15=Selam olsun
TTITLE16=Kerpiç kerpiç üstünde
TTITLE17=Körler tanri ariyorlar
EXTD=
EXTT0=
EXTT1=
EXTT2=
EXTT3=
EXTT4=
EXTT5=
EXTT6=
EXTT7=
EXTT8=
EXTT9=
EXTT10=
EXTT11=
EXTT12=
EXTT13=
EXTT14=
EXTT15=
EXTT16=
EXTT17=
PLAYORDER=
